<svg xmlns="http://www.w3.org/2000/svg" xmlns:xlink="http://www.w3.org/1999/xlink" version="1.1" width="256" height="256" viewBox="0 0 256 256" xml:space="preserve">

<defs>
</defs>
<g style="stroke: none; stroke-width: 0; stroke-dasharray: none; stroke-linecap: butt; stroke-linejoin: miter; stroke-miterlimit: 10; fill: none; fill-rule: nonzero; opacity: 1;" transform="translate(1.4065934065934016 1.4065934065934016) scale(2.81 2.81)" >
	<path d="M 45 90 C 20.187 90 0 69.813 0 44.999 C 0 20.187 20.187 0 45 0 l 0 0.001 c 24.813 0 45 20.186 45 44.998 C 90 69.813 69.813 90 45 90 z M 44.997 8.001 c -9.881 0 -19.171 3.848 -26.16 10.835 C 11.849 25.825 8 35.116 8 44.999 C 8 65.401 24.598 82 45 82 c 20.402 0 37 -16.599 37 -37.001 c 0 -20.4 -16.599 -36.998 -37 -36.998 C 45 8.001 44.999 8.001 44.997 8.001 z" style="stroke: none; stroke-width: 1; stroke-dasharray: none; stroke-linecap: butt; stroke-linejoin: miter; stroke-miterlimit: 10; fill: rgb(46,189,89); fill-rule: nonzero; opacity: 1;" transform=" matrix(1 0 0 1 0 0) " stroke-linecap="round" />
	<path d="M 61.829 66.12 c -0.711 0 -1.431 -0.19 -2.082 -0.588 c -9.705 -5.932 -22.083 -7.236 -36.787 -3.878 c -2.153 0.493 -4.298 -0.854 -4.79 -3.009 c -0.492 -2.153 0.855 -4.298 3.009 -4.79 c 16.809 -3.84 31.191 -2.207 42.74 4.851 c 1.885 1.152 2.479 3.614 1.327 5.499 C 64.492 65.438 63.177 66.12 61.829 66.12 z" style="stroke: none; stroke-width: 1; stroke-dasharray: none; stroke-linecap: butt; stroke-linejoin: miter; stroke-miterlimit: 10; fill: rgb(46,189,89); fill-rule: nonzero; opacity: 1;" transform=" matrix(1 0 0 1 0 0) " stroke-linecap="round" />
	<path d="M 66.395 54.021 c -0.714 0 -1.438 -0.191 -2.091 -0.594 c -11.258 -6.919 -28.464 -8.917 -41.847 -4.854 c -2.114 0.646 -4.347 -0.551 -4.989 -2.666 c -0.642 -2.114 0.552 -4.348 2.666 -4.989 c 15.409 -4.677 35.295 -2.336 48.36 5.695 c 1.882 1.156 2.47 3.62 1.313 5.502 C 69.051 53.343 67.738 54.021 66.395 54.021 z" style="stroke: none; stroke-width: 1; stroke-dasharray: none; stroke-linecap: butt; stroke-linejoin: miter; stroke-miterlimit: 10; fill: rgb(46,189,89); fill-rule: nonzero; opacity: 1;" transform=" matrix(1 0 0 1 0 0) " stroke-linecap="round" />
	<path d="M 71.725 40.025 c -0.694 0 -1.398 -0.181 -2.038 -0.561 c -13.223 -7.852 -36.207 -8.844 -49.382 -4.846 c -2.113 0.642 -4.348 -0.552 -4.989 -2.666 c -0.642 -2.114 0.552 -4.348 2.666 -4.989 c 15.069 -4.574 40.058 -3.721 55.789 5.623 c 1.899 1.128 2.524 3.582 1.396 5.481 C 74.42 39.326 73.09 40.025 71.725 40.025 z" style="stroke: none; stroke-width: 1; stroke-dasharray: none; stroke-linecap: butt; stroke-linejoin: miter; stroke-miterlimit: 10; fill: rgb(46,189,89); fill-rule: nonzero; opacity: 1;" transform=" matrix(1 0 0 1 0 0) " stroke-linecap="round" />
</g>
</svg>